<svg width="216" height="47" viewBox="0 0 216 47" fill="none" xmlns="http://www.w3.org/2000/svg">
<path d="M29.8793 0.636173C29.1343 0.414022 28.3743 0.227215 27.6093 0.0807972L27.3943 0.0404053L24.4994 21.4476L27.4993 19.6351L27.5093 19.5341L30.0443 0.691711L29.8793 0.636173Z" fill="#336AFF"/>
<path d="M32.1542 1.44906L31.9092 1.34808L29.6243 18.3527L32.5992 16.5503L32.6142 16.4543L34.4792 2.58506L34.3542 2.51942C33.6392 2.12056 32.9042 1.76714 32.1542 1.44906Z" fill="#336AFF"/>
<path d="M38.704 5.61944C38.019 5.00348 37.2991 4.42791 36.5491 3.89272L36.2741 3.70087L34.7191 15.2678L37.744 13.4402L37.759 13.3392L38.789 5.69012L38.704 5.61944Z" fill="#336AFF"/>
<path d="M10.0948 3.83209L9.94978 3.93307C9.30979 4.38747 8.69481 4.87216 8.10982 5.38715L7.94482 5.52852L22.5945 21.175L23.0695 17.661L22.9995 17.5903L10.0948 3.83209Z" fill="#336AFF"/>
<path d="M14.3047 1.48944L14.1747 1.54498C13.4247 1.86811 12.6947 2.23668 11.9898 2.63554L11.7548 2.76681L23.3995 15.182L23.8695 11.6932L23.8045 11.6225L14.3047 1.48944Z" fill="#336AFF"/>
<path d="M24.6245 5.58911L19.3796 0L19.2746 0.020194C18.3646 0.181758 17.4746 0.393812 16.6047 0.656354L16.2847 0.752282L24.2145 9.2041L24.6945 5.65979L24.6245 5.58911Z" fill="#336AFF"/>
<path d="M46.1789 19.1605C46.0339 18.3426 45.8489 17.5398 45.6289 16.7522L45.5539 16.4947L31.0592 25.2747L34.2941 26.5218L34.3791 26.4713L46.2038 19.3069L46.1789 19.1605Z" fill="#336AFF"/>
<path d="M44.8439 14.4347C44.5489 13.6976 44.2189 12.9806 43.859 12.2839L43.759 12.092L25.4894 23.1339L28.7543 24.3911L28.8393 24.3406L44.9089 14.6013L44.8439 14.4347Z" fill="#336AFF"/>
<path d="M46.4939 21.7657L46.4739 21.4274L36.6141 27.4003L39.9091 28.6625L39.9941 28.612L46.5239 24.6587L46.5289 24.5476C46.5489 24.1488 46.5589 23.7449 46.5589 23.341C46.5489 22.8108 46.5289 22.2857 46.4939 21.7657Z" fill="#336AFF"/>
<path d="M14.4597 38.629L14.4897 38.7249L16.8247 46.0761L16.9297 46.1064C17.8046 46.3588 18.6946 46.5608 19.6096 46.7072L19.9396 46.7577L16.4047 35.6451L14.4597 38.629Z" fill="#336AFF"/>
<path d="M22.9745 25.5726L21.0446 28.5312L21.0746 28.6221L26.8294 46.7173L27.0044 46.692C27.7794 46.5658 28.5394 46.3941 29.2894 46.1972L29.4994 46.1417L22.9745 25.5726Z" fill="#336AFF"/>
<path d="M17.7697 33.5548L17.7997 33.6457L22.0346 46.9647L22.1746 46.9748C22.5345 46.9899 22.8995 47 23.2645 47C23.7145 47 24.1645 46.9899 24.6095 46.9596L24.8745 46.9445L19.6796 30.6164L17.7697 33.5548Z" fill="#336AFF"/>
<path d="M6.0248 25.8604L5.96981 25.9462L1.7749 32.3936L1.8149 32.4946C2.16989 33.3529 2.57988 34.186 3.02487 34.9888L3.18987 35.2816L9.52472 25.5474L6.0248 25.8604Z" fill="#336AFF"/>
<path d="M17.8845 24.8001L17.8295 24.8859L7.50977 40.7495L7.63976 40.8656C8.21475 41.3958 8.81974 41.9007 9.44472 42.3702L9.61472 42.5015L21.3594 24.4921L17.8845 24.8001Z" fill="#336AFF"/>
<path d="M11.9847 25.3302L11.9297 25.416L4.33484 37.084L4.41984 37.2052C4.89482 37.8767 5.40481 38.5179 5.9448 39.1338L6.1198 39.3308L15.4296 25.0273L11.9847 25.3302Z" fill="#336AFF"/>
<path d="M18.7896 19.9633L18.6896 19.9734L0.06 21.6546L0.05 21.8364C0.0200007 22.3261 0 22.8209 0 23.3258C0 23.6237 0.0100002 23.9165 0.02 24.2043L0.0250009 24.4265L21.1895 22.5331L18.7896 19.9633Z" fill="#336AFF"/>
<path d="M10.5747 11.1883L10.4747 11.1984L2.89991 11.88L2.84991 11.9759C2.40992 12.7888 2.02492 13.632 1.67993 14.4953L1.55994 14.8083L12.9997 13.7784L10.5747 11.1883Z" fill="#336AFF"/>
<path d="M14.6997 15.5959L14.5997 15.606L0.89001 16.843L0.85001 16.9793C0.635015 17.772 0.46002 18.5748 0.320023 19.3978L0.275024 19.6603L17.0796 18.1456L14.6997 15.5959Z" fill="#336AFF"/>
<path d="M24.8094 24.9717L25.8794 28.3494L25.9744 28.3848L43.474 35.0897L43.559 34.9332C43.939 34.2465 44.289 33.5397 44.599 32.8076L44.684 32.6056L24.8094 24.9717Z" fill="#336AFF"/>
<path d="M27.6994 34.085L27.7944 34.1203L40.6691 39.0531L40.7641 38.947C41.2991 38.326 41.8041 37.6798 42.274 37.0032L42.424 36.7811L26.6394 30.7325L27.6994 34.085Z" fill="#336AFF"/>
<path d="M29.5393 39.876L29.6343 39.9114L36.7392 42.6327L36.8292 42.5671C37.5741 42.0218 38.2891 41.4412 38.9641 40.8151L39.2091 40.5879L28.4644 36.4731L29.5393 39.876Z" fill="#336AFF"/>
<path d="M72.5533 33.1106C71.1583 33.4387 69.6534 33.7164 68.2034 33.7164C62.0185 33.7164 57.7236 30.5861 57.7236 24.068C57.7236 17.4641 61.7235 13.7582 68.2084 13.7632C69.4684 13.7632 71.1333 14.0106 72.5333 14.566L72.2583 17.8276C70.8083 16.9996 69.4934 16.8027 68.1234 16.8027C64.1835 16.8027 61.7185 19.8421 61.7185 23.7903C61.7185 27.7133 64.1235 30.6719 68.2034 30.6719C69.7084 30.6719 71.4883 30.3438 72.3883 29.8742L72.5533 33.1106Z" fill="#111111"/>
<path d="M75.2432 14.0964L85.863 14.1015V17.1409L79.0731 17.1359V21.8919H85.533V24.9313L79.0731 24.9263L79.0681 33.3831H75.2382L75.2432 14.0964Z" fill="#111111"/>
<path d="M92.0728 14.1015H96.3977L103.893 33.3983H99.6526L98.0127 28.9755H90.2679L88.5979 33.3983H84.628L92.0728 14.1015ZM94.1828 17.974H94.1278L91.3628 25.931H96.9477L94.1828 17.974Z" fill="#111111"/>
<path d="M111.727 14.1116H115.557L115.552 33.4033H111.722L111.727 14.1116Z" fill="#111111"/>
<path d="M119.607 19.1706H123.082V21.1043H123.137C124.287 19.4735 125.847 18.8373 127.762 18.8373C131.102 18.8373 132.552 21.2154 132.552 24.4214L132.547 33.4034H128.882V25.8048C128.882 24.0629 128.857 21.7152 126.502 21.7152C123.847 21.7152 123.272 24.6133 123.272 26.441V33.4034H119.602L119.607 19.1706Z" fill="#111111"/>
<path d="M144.842 22.1646C143.722 21.7758 142.902 21.5537 141.557 21.5537C140.572 21.5537 139.397 21.9121 139.392 23.1289C139.392 25.3959 145.767 23.962 145.767 29.1017C145.767 32.4189 142.837 33.7467 139.857 33.7417C138.462 33.7417 137.037 33.4943 135.697 33.1307L135.917 30.0913C137.067 30.6719 138.272 31.0304 139.527 31.0304C140.457 31.0304 141.937 30.6719 141.937 29.2885C141.937 26.4965 135.562 28.3999 135.562 23.2602C135.562 20.1905 138.222 18.8374 141.092 18.8424C142.817 18.8424 143.937 19.1201 145.087 19.3675L144.842 22.1646Z" fill="#111111"/>
<path d="M149.411 21.8869H146.702V19.1807H149.411V16.3331L153.081 15.1466V19.1807H156.341V21.8869H153.086L153.081 28.5211C153.081 29.7379 153.411 30.8688 154.806 30.8688C155.461 30.8688 156.096 30.7325 156.476 30.4851L156.586 33.4134C155.821 33.6356 154.971 33.7467 153.876 33.7467C151.001 33.7467 149.416 31.9493 149.416 29.1269L149.411 21.8869Z" fill="#111111"/>
<path d="M159.346 19.1857H163.011L163.006 33.4185H159.336L159.346 19.1857ZM159.351 13.0513H163.016V16.5906H159.351V13.0513Z" fill="#111111"/>
<path d="M167.666 21.897H164.956V19.1908H167.666V16.3432L171.336 15.1567V19.1908H174.591V21.897H171.336V28.5312C171.336 29.748 171.661 30.8789 173.056 30.8789C173.711 30.8789 174.341 30.7426 174.726 30.4952L174.836 33.4236C174.071 33.6457 173.221 33.7568 172.126 33.7568C169.251 33.7568 167.666 31.9594 167.666 29.1371V21.897Z" fill="#111111"/>
<path d="M190.051 33.4286H186.576V31.4949H186.521C185.401 32.8732 183.816 33.7618 181.896 33.7568C178.556 33.7568 177.106 31.3787 177.106 28.1727L177.111 19.1907H180.776V26.7893C180.776 28.5312 180.801 30.8789 183.156 30.8789C185.811 30.8789 186.386 27.9808 186.391 26.1531V19.1907H190.056L190.051 33.4286Z" fill="#111111"/>
<path d="M194.49 21.907H191.781V19.1958H194.49V16.3482L198.16 15.1617V19.1958H201.42V21.902H198.165L198.16 28.5362C198.16 29.753 198.49 30.8839 199.885 30.8839C200.54 30.8839 201.175 30.7476 201.555 30.5002L201.665 33.4286C200.9 33.6507 200.05 33.7618 198.955 33.7568C196.08 33.7568 194.495 31.9594 194.495 29.137L194.49 21.907Z" fill="#111111"/>
<path d="M214.955 32.6359C213.615 33.3832 212.08 33.7669 210.11 33.7669C205.46 33.7669 202.75 31.0556 202.75 26.3854C202.75 22.2706 204.915 18.8676 209.295 18.8727C214.52 18.8727 216 22.4978 216 27.4709L206.255 27.4659C206.415 29.7581 208.005 31.0607 210.275 31.0607C212.055 31.0607 213.585 30.3993 214.955 29.6217V32.6359ZM212.495 24.9263C212.385 23.1289 211.565 21.5839 209.515 21.5789C207.465 21.5789 206.42 23.0128 206.255 24.9212L212.495 24.9263Z" fill="#111111"/>
</svg>
