<?xml version="1.0" encoding="UTF-8"?>
<svg id="Layer_1" data-name="Layer 1" xmlns="http://www.w3.org/2000/svg" viewBox="0 0 500 500">
  <defs>
    <style>
      .cls-1 {
        fill: #fff;
        fill-rule: evenodd;
        stroke-width: 0px;
      }
    </style>
  </defs>
  <path class="cls-1" d="M381.88,38.98H118.12c-43.7,0-79.13,35.43-79.13,79.13v263.77c0,43.7,35.43,79.13,79.13,79.13h263.77c43.7,0,79.13-35.43,79.13-79.13V118.12c0-43.7-35.43-79.13-79.13-79.13ZM371.17,266.27h-39.48v146.16h-65.97v-146.16h-25.6v-49.26h25.6v-31.37c0-41.09,17.1-65.53,65.53-65.53h49.09v49.03h-28.54c-18.88,0-20.1,7.05-20.1,20.16l-.06,27.65h44.87l-5.39,49.26.06.06Z"/>
</svg>