<?xml version="1.0" encoding="UTF-8"?>
<svg id="Layer_1" data-name="Layer 1" xmlns="http://www.w3.org/2000/svg" viewBox="0 0 500 500">
  <defs>
    <style>
      .cls-1 {
        fill: #fff;
        stroke-width: 0px;
      }
    </style>
  </defs>
  <path class="cls-1" d="M177.41,250c0-40.1,32.5-72.62,72.6-72.62s72.62,32.52,72.62,72.62-32.52,72.62-72.62,72.62-72.6-32.52-72.6-72.62M138.15,250c0,61.78,50.08,111.85,111.85,111.85s111.85-50.08,111.85-111.85-50.08-111.85-111.85-111.85-111.85,50.08-111.85,111.85M340.15,133.71c0,14.44,11.69,26.14,26.13,26.15,14.44,0,26.14-11.69,26.15-26.13,0-14.44-11.69-26.14-26.13-26.15h-.01c-14.43,0-26.13,11.7-26.14,26.13M162,427.31c-21.24-.97-32.78-4.5-40.45-7.49-10.17-3.96-17.43-8.67-25.06-16.29-7.63-7.62-12.35-14.87-16.29-25.04-2.99-7.67-6.53-19.21-7.49-40.45-1.06-22.96-1.27-29.86-1.27-88.03s.23-65.05,1.27-88.03c.97-21.24,4.53-32.76,7.49-40.45,3.96-10.17,8.67-17.43,16.29-25.06,7.62-7.63,14.87-12.35,25.06-16.29,7.67-2.99,19.21-6.53,40.45-7.49,22.96-1.06,29.86-1.27,88-1.27s65.05.23,88.03,1.27c21.24.97,32.76,4.53,40.45,7.49,10.17,3.94,17.43,8.67,25.06,16.29,7.63,7.62,12.33,14.89,16.29,25.06,2.99,7.67,6.53,19.21,7.49,40.45,1.06,22.98,1.27,29.86,1.27,88.03s-.21,65.05-1.27,88.03c-.97,21.24-4.52,32.78-7.49,40.45-3.96,10.17-8.67,17.43-16.29,25.04-7.62,7.61-14.89,12.33-25.06,16.29-7.67,2.99-19.21,6.53-40.45,7.49-22.96,1.06-29.86,1.27-88.03,1.27s-65.05-.21-88-1.27M160.2,33.49c-23.19,1.06-39.04,4.73-52.87,10.12-14.33,5.56-26.46,13.02-38.59,25.13-12.12,12.1-19.56,24.26-25.13,38.59-5.38,13.85-9.06,29.68-10.12,52.87-1.07,23.23-1.32,30.65-1.32,89.81s.25,66.58,1.32,89.81c1.06,23.19,4.73,39.03,10.12,52.87,5.56,14.32,13,26.49,25.13,38.59,12.12,12.1,24.26,19.55,38.59,25.13,13.86,5.38,29.68,9.06,52.87,10.12,23.24,1.06,30.65,1.32,89.81,1.32s66.58-.25,89.81-1.32c23.19-1.06,39.03-4.73,52.87-10.12,14.32-5.58,26.46-13.02,38.59-25.13,12.12-12.1,19.55-24.26,25.13-38.59,5.38-13.85,9.08-29.68,10.12-52.87,1.06-23.24,1.3-30.65,1.3-89.81s-.25-66.58-1.3-89.81c-1.06-23.19-4.73-39.04-10.12-52.87-5.58-14.32-13.02-26.46-25.13-38.59s-24.26-19.56-38.57-25.13c-13.86-5.38-29.7-9.08-52.87-10.12-23.23-1.06-30.65-1.32-89.81-1.32s-66.59.25-89.83,1.32"/>
  <path class="cls-1" d="M177.41,250c0-40.1,32.5-72.62,72.6-72.62s72.62,32.52,72.62,72.62-32.52,72.62-72.62,72.62-72.6-32.52-72.6-72.62M138.15,250c0,61.78,50.08,111.85,111.85,111.85s111.85-50.08,111.85-111.85-50.08-111.85-111.85-111.85-111.85,50.08-111.85,111.85M340.15,133.71c0,14.44,11.69,26.14,26.13,26.15,14.44,0,26.14-11.69,26.15-26.13,0-14.44-11.69-26.14-26.13-26.15h-.01c-14.43,0-26.13,11.7-26.14,26.13M162,427.31c-21.24-.97-32.78-4.5-40.45-7.49-10.17-3.96-17.43-8.67-25.06-16.29-7.63-7.62-12.35-14.87-16.29-25.04-2.99-7.67-6.53-19.21-7.49-40.45-1.06-22.96-1.27-29.86-1.27-88.03s.23-65.05,1.27-88.03c.97-21.24,4.53-32.76,7.49-40.45,3.96-10.17,8.67-17.43,16.29-25.06,7.62-7.63,14.87-12.35,25.06-16.29,7.67-2.99,19.21-6.53,40.45-7.49,22.96-1.06,29.86-1.27,88-1.27s65.05.23,88.03,1.27c21.24.97,32.76,4.53,40.45,7.49,10.17,3.94,17.43,8.67,25.06,16.29,7.63,7.62,12.33,14.89,16.29,25.06,2.99,7.67,6.53,19.21,7.49,40.45,1.06,22.98,1.27,29.86,1.27,88.03s-.21,65.05-1.27,88.03c-.97,21.24-4.52,32.78-7.49,40.45-3.96,10.17-8.67,17.43-16.29,25.04-7.62,7.61-14.89,12.33-25.06,16.29-7.67,2.99-19.21,6.53-40.45,7.49-22.96,1.06-29.86,1.27-88.03,1.27s-65.05-.21-88-1.27M160.2,33.49c-23.19,1.06-39.04,4.73-52.87,10.12-14.33,5.56-26.46,13.02-38.59,25.13-12.12,12.1-19.56,24.26-25.13,38.59-5.38,13.85-9.06,29.68-10.12,52.87-1.07,23.23-1.32,30.65-1.32,89.81s.25,66.58,1.32,89.81c1.06,23.19,4.73,39.03,10.12,52.87,5.56,14.32,13,26.49,25.13,38.59,12.12,12.1,24.26,19.55,38.59,25.13,13.86,5.38,29.68,9.06,52.87,10.12,23.24,1.06,30.65,1.32,89.81,1.32s66.58-.25,89.81-1.32c23.19-1.06,39.03-4.73,52.87-10.12,14.32-5.58,26.46-13.02,38.59-25.13,12.12-12.1,19.55-24.26,25.13-38.59,5.38-13.85,9.08-29.68,10.12-52.87,1.06-23.24,1.3-30.65,1.3-89.81s-.25-66.58-1.3-89.81c-1.06-23.19-4.73-39.04-10.12-52.87-5.58-14.32-13.02-26.46-25.13-38.59s-24.26-19.56-38.57-25.13c-13.86-5.38-29.7-9.08-52.87-10.12-23.23-1.06-30.65-1.32-89.81-1.32s-66.59.25-89.83,1.32"/>
</svg>