<?xml version="1.0" encoding="UTF-8"?>
<svg id="Layer_1" data-name="Layer 1" xmlns="http://www.w3.org/2000/svg" viewBox="0 0 500 500">
  <defs>
    <style>
      .cls-1 {
        fill: #fff;
        stroke-width: 0px;
      }
    </style>
  </defs>
  <path class="cls-1" d="M430.32,39.63H69.59c-16.53,0-29.96,13.62-29.96,30.34v360.08c0,16.72,13.43,30.33,29.96,30.33h360.73c16.53,0,30.05-13.62,30.05-30.33V69.96c0-16.72-13.52-30.33-30.05-30.34ZM166.79,400.27h-62.36v-200.79h62.45v200.79h-.09ZM135.61,172.05c-20,0-36.16-16.25-36.16-36.16s16.15-36.16,36.16-36.16,36.16,16.25,36.16,36.16-16.15,36.16-36.16,36.16ZM400.55,400.27h-62.36v-97.67c0-23.29-.47-53.25-32.4-53.25s-37.47,25.36-37.47,51.56v99.36h-62.36v-200.79h59.82v27.42h.85c8.36-15.78,28.74-32.4,59.07-32.4,63.11,0,74.85,41.6,74.85,95.7v110.07Z"/>
</svg>