<?xml version="1.0" encoding="UTF-8"?>
<svg id="Layer_1" data-name="Layer 1" xmlns="http://www.w3.org/2000/svg" viewBox="0 0 500 500">
  <defs>
    <style>
      .cls-1 {
        fill: #fff;
        stroke-width: 0px;
      }
    </style>
  </defs>
  <path class="cls-1" d="M485.52,306.86c0-65.45-63.3-118.83-141.24-118.83s-140.8,53.39-140.8,118.83,63.3,118.83,141.24,118.83c15.08,0,29.28-1.71,42.63-5.6,3.88-.87,8.18-.43,12.06,1.3l34.88,18.94c2.15,1.3,5.16-.87,4.3-3.45l-6.9-27.98c-.87-4.3.43-8.61,4.3-11.19,30.17-21.95,49.54-54.25,49.54-90.85ZM293.92,291.37c-10.76,0-19.37-8.61-19.37-19.37s8.61-19.37,19.37-19.37,19.37,8.61,19.37,19.37-8.61,19.37-19.37,19.37ZM389.08,291.37c-10.76,0-19.37-8.61-19.37-19.37s8.61-19.37,19.37-19.37,19.37,8.61,19.37,19.37-9.05,19.37-19.37,19.37Z"/>
  <path class="cls-1" d="M191.88,307.29c0-72.76,68.89-131.76,154.15-131.76h6.46c-13.79-65.88-83.54-116.25-167.51-116.25C90.68,59.28,14.48,122.15,14.48,200.09c0,43.06,23.69,81.8,60.72,107.64,2.58,1.71,3.45,4.73,3.02,7.74l-12.91,45.64c-.87,3.02,2.58,6.03,5.6,4.3l50.37-30.13c3.45-2.15,7.31-2.58,11.19-1.3,16.79,4.3,34.45,6.9,52.54,6.9,3.88,0,7.74,0,12.06-.43-3.47-10.76-5.18-21.95-5.18-33.15h0ZM242.25,133.77c12.49,0,22.82,10.33,22.82,22.82s-10.33,22.82-22.82,22.82-22.82-10.33-22.82-22.82,10.35-22.82,22.82-22.82h0ZM127.71,179.41c-12.49,0-22.82-10.33-22.82-22.82s10.33-22.82,22.82-22.82,22.82,10.33,22.82,22.82-9.89,22.82-22.82,22.82Z"/>
</svg>